<?xml version="1.0" ?><svg  height="40px" viewBox="0 0 24 24" width="24" xmlns="http://www.w3.org/2000/svg">
<path clip-rule="evenodd" d="M11 1C10.4477 1 10 1.44772 10 2V16C10 17.1046 9.10457 18 8 18C6.89543 18 6 17.1046 6 16C6 14.8954 6.89543 14 8 14C8.55228 14 9 13.5523 9 13V10C9 9.44772 8.55228 9 8 9C4.13401 9 1 12.134 1 16C1 19.866 4.13401 23 8 23C11.866 23 15 19.866 15 16V10.6619C16.471 11.5127 18.1792 12 20 12C20.5523 12 21 11.5523 21 11V8C21 7.44772 20.5523 7 20 7C17.2386 7 15 4.76142 15 2C15 1.44772 14.5523 1 14 1H11Z" fill="black" fill-rule="evenodd"/></svg>